# xmcd
#
# Track frame offsets:
#	150
#	10911
#	20680
#	36173
#	52103
#	63939
#	81525
#	94155
#	109714
#	122419
#	136832
#	152281
#	166968
#	179615
#	191322
#	207125
#	217263
#	233310
#	247788
#	264672
#
# Disc length: 3677 seconds
#
# Revision: 1
# Processed by: cddbd v1.5.2PL0 Copyright (c) Steve Scherf et al.
# Submitted via: audiograbber 1.83.01
#
DISCID=080e5b14
DTITLE=Dolorosa - Waarom fluister ik je naam
DYEAR=1900
DGENRE=National Folk
TTITLE0=Dolorosa - Medley 2 Breng eens een zonnetje
TTITLE1=Dolorosa - De bedelaar van Parijs
TTITLE2=Dolorosa - Op de woelige baren
TTITLE3=Dolorosa - Ach Margrietje
TTITLE4=Dolorosa - Hoor je het ruisen der golven
TTITLE5=Dolorosa - Oh zwarte zigeuner
TTITLE6=Dolorosa - Meisje ik ben een zeeman
TTITLE7=Dolorosa - Als een wilde orchidee
TTITLE8=Dolorosa - Medley 4 Eddy Christiani
TTITLE9=Dolorosa - Weet je nog wel, die avond in de regen
TTITLE10=Dolorosa - Waarom fluister ik je naam nog
TTITLE11=Dolorosa - Op een mooie pinksterdag
TTITLE12=Dolorosa - Aan de Amsterdamse grachten
TTITLE13=Dolorosa - De Heilsoldaat
TTITLE14=Dolorosa - Droomland
TTITLE15=Dolorosa - Daar bij die molen
TTITLE16=Dolorosa - Laat maar lekker gaan
TTITLE17=Dolorosa - Kleine cafe aan de haven
TTITLE18=Dolorosa - Medley 5 De Jantjes
TTITLE19=Dolorosa - Het zwerverlied
EXTD=
EXTT0=
EXTT1=
EXTT2=
EXTT3=
EXTT4=
EXTT5=
EXTT6=
EXTT7=
EXTT8=
EXTT9=
EXTT10=
EXTT11=
EXTT12=
EXTT13=
EXTT14=
EXTT15=
EXTT16=
EXTT17=
EXTT18=
EXTT19=
PLAYORDER=
